<?xml version="1.0" standalone="no"?>
<!DOCTYPE svg PUBLIC "-//W3C//DTD SVG 20010904//EN"
 "http://www.w3.org/TR/2001/REC-SVG-20010904/DTD/svg10.dtd">
<svg version="1.0" xmlns="http://www.w3.org/2000/svg"
 width="512.000000pt" height="512.000000pt" viewBox="0 0 512.000000 512.000000"
 preserveAspectRatio="xMidYMid meet">
<metadata>
Created by potrace 1.14, written by Peter Selinger 2001-2017
</metadata>
<g transform="translate(0.000000,512.000000) scale(0.100000,-0.100000)"
fill="#000000" stroke="none">
<path d="M1245 4480 c-318 -69 -565 -237 -742 -504 -109 -166 -183 -402 -183
-588 l0 -58 80 0 c69 0 80 2 81 18 0 14 2 14 8 -3 5 -13 10 7 15 60 30 337
218 628 508 785 153 82 279 113 463 112 190 -1 321 -36 492 -133 80 -46 145
-104 421 -374 90 -88 168 -160 172 -160 5 0 73 63 152 140 289 284 362 349
441 394 103 58 201 97 295 117 103 21 302 21 404 0 408 -87 718 -439 763 -866
4 -36 12 -71 17 -77 6 -7 28 -13 49 -13 24 0 40 5 40 13 1 6 5 -6 9 -28 l7
-40 2 45 c2 32 5 40 10 26 7 -18 8 -18 14 5 4 13 7 81 7 151 0 109 -4 138 -26
210 -110 348 -410 639 -765 742 -137 39 -225 49 -382 43 -191 -7 -328 -43
-487 -129 -124 -66 -197 -124 -378 -302 l-172 -169 -178 174 c-254 251 -375
327 -627 396 -128 35 -379 42 -510 13z"/>
<path d="M491 3294 c0 -11 3 -14 6 -6 3 7 2 16 -1 19 -3 4 -6 -2 -5 -13z"/>
<path d="M2100 1094 c0 -7 27 -34 34 -34 13 0 5 16 -14 28 -11 7 -20 10 -20 6z"/>
<path d="M2747 1064 c-21 -19 -35 -40 -31 -46 4 -7 3 -8 -4 -4 -7 4 -39 -19
-77 -56 -37 -35 -69 -64 -73 -65 -4 -1 -43 31 -87 72 -44 41 -86 75 -94 75 -8
0 -25 10 -38 22 -23 21 -33 14 -13 -10 7 -9 7 -9 -2 -2 -16 14 -168 13 -168
-1 0 -5 -6 -7 -12 -3 -7 4 55 -62 138 -147 84 -85 177 -180 208 -211 30 -32
60 -58 66 -58 8 0 113 104 418 416 43 45 59 74 20 36 -19 -17 -38 -21 -116
-24 -78 -3 -91 -1 -87 12 4 8 -4 5 -18 -8 -35 -33 -45 -27 -12 8 39 41 29 37
-18 -6z m218 -24 c-3 -5 -12 -10 -18 -10 -7 0 -6 4 3 10 19 12 23 12 15 0z
m-745 -30 c0 -5 -4 -10 -10 -10 -5 0 -10 5 -10 10 0 6 5 10 10 10 6 0 10 -4
10 -10z m700 0 c0 -5 -5 -10 -11 -10 -5 0 -7 5 -4 10 3 6 8 10 11 10 2 0 4 -4
4 -10z"/>
</g>
</svg>
